<svg xmlns="http://www.w3.org/2000/svg" xmlns:xlink="http://www.w3.org/1999/xlink" width="174" zoomAndPan="magnify" viewBox="0 0 130.5 272.999991" height="364" preserveAspectRatio="xMidYMid meet" version="1.0"><defs><clipPath id="331002d8e8"><path d="M 1.859375 4 L 128.125 4 L 128.125 271 L 1.859375 271 Z M 1.859375 4 " clip-rule="nonzero"/></clipPath></defs><g clip-path="url(#331002d8e8)"><path fill="#161616" d="M 99.039062 47.957031 L 128.164062 47.957031 L 128.164062 4.023438 L 90.933594 4.023438 L 90.933594 4.1875 C 42.027344 5.957031 31.988281 33.40625 31.101562 62.324219 L 31.007812 62.324219 L 31.007812 92.824219 L 1.882812 92.824219 L 1.882812 136.785156 L 31.007812 136.785156 L 31.007812 270.480469 L 83.292969 270.480469 L 83.292969 136.785156 L 120.765625 136.785156 L 128.164062 92.824219 L 83.292969 92.824219 L 83.292969 65.542969 C 83.292969 55.839844 89.765625 47.957031 99.039062 47.957031 Z M 99.039062 47.957031 " fill-opacity="1" fill-rule="nonzero"/></g></svg>