<svg xmlns="http://www.w3.org/2000/svg" xmlns:xlink="http://www.w3.org/1999/xlink" width="375" zoomAndPan="magnify" viewBox="0 0 281.25 281.249989" height="375" preserveAspectRatio="xMidYMid meet" version="1.0"><defs><clipPath id="eb11514def"><path d="M 3.132812 3.132812 L 277.652344 3.132812 L 277.652344 277.652344 L 3.132812 277.652344 Z M 3.132812 3.132812 " clip-rule="nonzero"/></clipPath></defs><g clip-path="url(#eb11514def)"><path fill="#161616" d="M 140.1875 27.859375 C 176.777344 27.859375 181.105469 27.980469 195.585938 28.640625 C 208.921875 29.242188 216.195312 31.464844 221.058594 33.386719 C 227.429688 35.851562 231.996094 38.855469 236.800781 43.660156 C 241.609375 48.46875 244.554688 53.035156 247.078125 59.402344 C 248.941406 64.210938 251.164062 71.480469 251.824219 84.878906 C 252.484375 99.359375 252.605469 103.683594 252.605469 140.277344 C 252.605469 176.867188 252.484375 181.195312 251.824219 195.675781 C 251.222656 209.011719 249 216.285156 247.078125 221.152344 C 244.613281 227.519531 241.609375 232.085938 236.800781 236.894531 C 231.996094 241.699219 227.429688 244.644531 221.058594 247.167969 C 216.253906 249.03125 208.984375 251.253906 195.585938 251.914062 C 181.105469 252.574219 176.777344 252.695312 140.1875 252.695312 C 103.59375 252.695312 99.269531 252.574219 84.789062 251.914062 C 71.449219 251.3125 64.179688 249.089844 59.3125 247.167969 C 52.945312 244.703125 48.378906 241.699219 43.570312 236.894531 C 38.765625 232.085938 35.820312 227.519531 33.296875 221.152344 C 31.433594 216.34375 29.210938 209.074219 28.550781 195.675781 C 27.886719 181.195312 27.769531 176.867188 27.769531 140.277344 C 27.769531 103.683594 27.886719 99.359375 28.550781 84.878906 C 29.148438 71.539062 31.375 64.269531 33.296875 59.402344 C 35.757812 53.035156 38.765625 48.46875 43.570312 43.660156 C 48.378906 38.855469 52.945312 35.910156 59.3125 33.386719 C 64.121094 31.523438 71.390625 29.300781 84.789062 28.640625 C 99.269531 27.980469 103.59375 27.859375 140.1875 27.859375 M 140.1875 3.164062 C 102.933594 3.164062 98.308594 3.34375 83.648438 4.003906 C 69.046875 4.664062 59.074219 7.007812 50.359375 10.375 C 41.347656 13.859375 33.71875 18.546875 26.085938 26.175781 C 18.515625 33.808594 13.828125 41.4375 10.34375 50.449219 C 6.980469 59.164062 4.636719 69.136719 3.976562 83.738281 C 3.3125 98.335938 3.132812 103.023438 3.132812 140.214844 C 3.132812 177.46875 3.3125 182.09375 3.976562 196.757812 C 4.636719 211.355469 6.980469 221.332031 10.34375 230.042969 C 13.828125 239.054688 18.515625 246.6875 26.144531 254.316406 C 33.777344 261.949219 41.40625 266.632812 50.421875 270.121094 C 59.132812 273.484375 69.105469 275.828125 83.707031 276.488281 C 98.308594 277.148438 102.996094 277.328125 140.246094 277.328125 C 177.5 277.328125 182.125 277.148438 196.785156 276.488281 C 211.386719 275.828125 221.359375 273.484375 230.074219 270.121094 C 239.085938 266.632812 246.714844 261.949219 254.347656 254.316406 C 261.976562 246.6875 266.664062 239.054688 270.148438 230.042969 C 273.515625 221.332031 275.859375 211.355469 276.519531 196.757812 C 277.179688 182.15625 277.359375 177.46875 277.359375 140.214844 C 277.359375 102.964844 277.179688 98.335938 276.519531 83.675781 C 275.859375 69.078125 273.515625 59.101562 270.148438 50.390625 C 266.664062 41.378906 261.976562 33.746094 254.347656 26.117188 C 246.714844 18.484375 239.085938 13.796875 230.074219 10.3125 C 221.359375 6.949219 211.386719 4.605469 196.785156 3.945312 C 182.125 3.34375 177.4375 3.164062 140.1875 3.164062 " fill-opacity="1" fill-rule="nonzero"/></g><path fill="#161616" d="M 140.1875 69.859375 C 101.3125 69.859375 69.828125 101.34375 69.828125 140.214844 C 69.828125 179.089844 101.371094 210.636719 140.246094 210.636719 C 179.121094 210.636719 210.664062 179.152344 210.664062 140.214844 C 210.605469 101.34375 179.0625 69.859375 140.1875 69.859375 M 140.1875 185.941406 C 114.949219 185.941406 94.523438 165.511719 94.523438 140.277344 C 94.523438 115.042969 114.949219 94.613281 140.1875 94.613281 C 165.421875 94.613281 185.851562 115.042969 185.851562 140.277344 C 185.910156 165.453125 165.421875 185.941406 140.1875 185.941406 " fill-opacity="1" fill-rule="nonzero"/><path fill="#161616" d="M 229.832031 67.09375 C 229.832031 76.167969 222.441406 83.558594 213.371094 83.558594 C 204.296875 83.558594 196.90625 76.167969 196.90625 67.09375 C 196.90625 58.019531 204.296875 50.628906 213.371094 50.628906 C 222.441406 50.628906 229.832031 57.960938 229.832031 67.09375 " fill-opacity="1" fill-rule="nonzero"/></svg>