<svg xmlns="http://www.w3.org/2000/svg" xmlns:xlink="http://www.w3.org/1999/xlink" width="500" zoomAndPan="magnify" viewBox="0 0 375 374.999991" height="500" preserveAspectRatio="xMidYMid meet" version="1.2"><defs><clipPath id="554cc2160a"><path d="M 110.480469 120 L 264.230469 120 L 264.230469 255 L 110.480469 255 Z M 110.480469 120 "/></clipPath></defs><g id="31e4ace96c"><g clip-rule="nonzero" clip-path="url(#554cc2160a)"><path style=" stroke:none;fill-rule:nonzero;fill:#000000;fill-opacity:1;" d="M 264.230469 207.523438 L 264.230469 233.363281 C 264.226562 234.066406 264.191406 234.769531 264.121094 235.472656 C 264.054688 236.171875 263.949219 236.867188 263.8125 237.558594 C 263.675781 238.25 263.503906 238.933594 263.296875 239.609375 C 263.09375 240.28125 262.855469 240.945312 262.585938 241.59375 C 262.316406 242.246094 262.015625 242.882812 261.683594 243.503906 C 261.351562 244.125 260.992188 244.726562 260.601562 245.3125 C 260.210938 245.898438 259.792969 246.464844 259.34375 247.007812 C 258.898438 247.554688 258.425781 248.074219 257.929688 248.574219 C 257.433594 249.070312 256.910156 249.542969 256.367188 249.992188 C 255.824219 250.4375 255.261719 250.859375 254.675781 251.25 C 254.089844 251.640625 253.488281 252.003906 252.867188 252.335938 C 252.246094 252.667969 251.613281 252.96875 250.964844 253.238281 C 250.3125 253.507812 249.652344 253.746094 248.980469 253.953125 C 248.304688 254.15625 247.625 254.328125 246.933594 254.464844 C 246.246094 254.605469 245.550781 254.707031 244.851562 254.777344 C 244.152344 254.847656 243.449219 254.882812 242.746094 254.882812 L 131.960938 254.882812 C 131.257812 254.882812 130.554688 254.847656 129.855469 254.777344 C 129.15625 254.707031 128.460938 254.605469 127.773438 254.464844 C 127.082031 254.328125 126.402344 254.15625 125.726562 253.953125 C 125.054688 253.746094 124.394531 253.507812 123.742188 253.238281 C 123.09375 252.96875 122.460938 252.667969 121.839844 252.335938 C 121.21875 252.003906 120.617188 251.640625 120.03125 251.25 C 119.445312 250.859375 118.882812 250.4375 118.339844 249.992188 C 117.796875 249.542969 117.273438 249.070312 116.777344 248.574219 C 116.28125 248.074219 115.808594 247.554688 115.363281 247.007812 C 114.914062 246.464844 114.496094 245.898438 114.105469 245.3125 C 113.714844 244.726562 113.355469 244.125 113.023438 243.503906 C 112.691406 242.882812 112.390625 242.246094 112.121094 241.59375 C 111.851562 240.945312 111.613281 240.28125 111.410156 239.609375 C 111.203125 238.933594 111.03125 238.25 110.894531 237.558594 C 110.757812 236.867188 110.652344 236.171875 110.585938 235.472656 C 110.515625 234.769531 110.480469 234.066406 110.480469 233.363281 L 110.480469 207.523438 C 110.476562 207.089844 110.519531 206.65625 110.605469 206.230469 C 110.691406 205.800781 110.816406 205.386719 110.980469 204.984375 C 111.148438 204.578125 111.351562 204.195312 111.59375 203.835938 C 111.835938 203.472656 112.109375 203.136719 112.417969 202.828125 C 112.726562 202.519531 113.0625 202.246094 113.421875 202.003906 C 113.785156 201.757812 114.167969 201.554688 114.570312 201.386719 C 114.972656 201.222656 115.386719 201.09375 115.8125 201.011719 C 116.238281 200.925781 116.671875 200.882812 117.105469 200.882812 C 117.539062 200.882812 117.972656 200.925781 118.398438 201.011719 C 118.824219 201.09375 119.242188 201.222656 119.640625 201.386719 C 120.042969 201.554688 120.425781 201.757812 120.789062 202.003906 C 121.148438 202.246094 121.484375 202.519531 121.792969 202.828125 C 122.101562 203.136719 122.375 203.472656 122.617188 203.835938 C 122.859375 204.195312 123.0625 204.578125 123.230469 204.984375 C 123.394531 205.386719 123.519531 205.800781 123.605469 206.230469 C 123.691406 206.65625 123.734375 207.089844 123.734375 207.523438 L 123.734375 232.199219 C 123.734375 232.816406 123.792969 233.429688 123.914062 234.035156 C 124.035156 234.640625 124.214844 235.226562 124.449219 235.796875 C 124.6875 236.367188 124.976562 236.910156 125.320312 237.421875 C 125.660156 237.9375 126.050781 238.410156 126.484375 238.847656 C 126.921875 239.285156 127.394531 239.671875 127.910156 240.015625 C 128.421875 240.359375 128.960938 240.648438 129.53125 240.886719 C 130.097656 241.121094 130.6875 241.300781 131.289062 241.421875 C 131.894531 241.542969 132.503906 241.605469 133.121094 241.605469 L 241.585938 241.605469 C 242.203125 241.605469 242.8125 241.542969 243.417969 241.421875 C 244.019531 241.300781 244.609375 241.121094 245.175781 240.886719 C 245.746094 240.648438 246.285156 240.359375 246.800781 240.015625 C 247.3125 239.671875 247.785156 239.285156 248.222656 238.847656 C 248.65625 238.410156 249.046875 237.9375 249.386719 237.421875 C 249.730469 236.910156 250.019531 236.367188 250.257812 235.796875 C 250.492188 235.226562 250.671875 234.640625 250.792969 234.035156 C 250.914062 233.429688 250.972656 232.816406 250.972656 232.199219 L 250.972656 207.523438 C 250.972656 207.089844 251.015625 206.65625 251.101562 206.230469 C 251.1875 205.800781 251.3125 205.386719 251.480469 204.984375 C 251.644531 204.582031 251.847656 204.199219 252.089844 203.835938 C 252.332031 203.472656 252.609375 203.136719 252.914062 202.828125 C 253.222656 202.519531 253.558594 202.246094 253.917969 202.003906 C 254.28125 201.761719 254.664062 201.558594 255.066406 201.390625 C 255.46875 201.222656 255.882812 201.097656 256.308594 201.011719 C 256.734375 200.925781 257.167969 200.886719 257.601562 200.886719 C 258.035156 200.886719 258.46875 200.925781 258.894531 201.011719 C 259.320312 201.097656 259.734375 201.222656 260.136719 201.390625 C 260.539062 201.558594 260.921875 201.761719 261.285156 202.003906 C 261.644531 202.246094 261.980469 202.519531 262.289062 202.828125 C 262.59375 203.136719 262.871094 203.472656 263.113281 203.835938 C 263.351562 204.199219 263.558594 204.582031 263.722656 204.984375 C 263.890625 205.386719 264.015625 205.800781 264.101562 206.230469 C 264.1875 206.65625 264.230469 207.089844 264.230469 207.523438 Z M 166.015625 160.269531 L 178.628906 147.632812 C 178.820312 147.441406 179.046875 147.320312 179.308594 147.269531 C 179.570312 147.21875 179.828125 147.242188 180.074219 147.34375 C 180.320312 147.449219 180.519531 147.609375 180.667969 147.835938 C 180.816406 148.058594 180.890625 148.304688 180.890625 148.570312 L 180.890625 211.085938 C 180.890625 211.519531 180.933594 211.953125 181.019531 212.378906 C 181.105469 212.808594 181.230469 213.222656 181.398438 213.625 C 181.5625 214.027344 181.765625 214.410156 182.007812 214.773438 C 182.25 215.136719 182.527344 215.472656 182.832031 215.78125 C 183.140625 216.089844 183.476562 216.363281 183.835938 216.605469 C 184.199219 216.847656 184.582031 217.050781 184.984375 217.21875 C 185.386719 217.386719 185.800781 217.511719 186.226562 217.597656 C 186.652344 217.683594 187.085938 217.722656 187.519531 217.722656 C 187.953125 217.722656 188.386719 217.683594 188.8125 217.597656 C 189.238281 217.511719 189.652344 217.386719 190.054688 217.21875 C 190.457031 217.050781 190.839844 216.847656 191.199219 216.605469 C 191.5625 216.363281 191.898438 216.089844 192.207031 215.78125 C 192.511719 215.472656 192.789062 215.136719 193.03125 214.773438 C 193.269531 214.410156 193.476562 214.027344 193.640625 213.625 C 193.808594 213.222656 193.933594 212.808594 194.019531 212.378906 C 194.105469 211.953125 194.144531 211.519531 194.144531 211.085938 L 194.144531 148.902344 C 194.144531 148.636719 194.21875 148.390625 194.371094 148.167969 C 194.519531 147.941406 194.714844 147.78125 194.964844 147.675781 C 195.210938 147.578125 195.46875 147.550781 195.730469 147.605469 C 195.992188 147.65625 196.21875 147.777344 196.410156 147.964844 L 208.691406 160.269531 C 209.003906 160.566406 209.339844 160.835938 209.703125 161.070312 C 210.066406 161.304688 210.449219 161.5 210.851562 161.664062 C 211.253906 161.824219 211.664062 161.945312 212.089844 162.027344 C 212.515625 162.109375 212.941406 162.152344 213.375 162.152344 C 213.808594 162.152344 214.238281 162.109375 214.660156 162.027344 C 215.085938 161.945312 215.5 161.824219 215.898438 161.664062 C 216.300781 161.5 216.683594 161.304688 217.046875 161.070312 C 217.410156 160.835938 217.75 160.566406 218.0625 160.269531 C 218.367188 159.960938 218.640625 159.625 218.882812 159.261719 C 219.125 158.898438 219.328125 158.515625 219.496094 158.113281 C 219.660156 157.710938 219.785156 157.296875 219.871094 156.867188 C 219.957031 156.441406 219.996094 156.011719 219.996094 155.574219 C 219.996094 155.140625 219.957031 154.707031 219.871094 154.28125 C 219.785156 153.851562 219.660156 153.4375 219.496094 153.035156 C 219.328125 152.632812 219.125 152.25 218.882812 151.886719 C 218.640625 151.523438 218.367188 151.1875 218.0625 150.878906 L 187.355469 120.117188 L 156.644531 150.878906 C 156.339844 151.1875 156.066406 151.523438 155.824219 151.886719 C 155.582031 152.25 155.378906 152.632812 155.210938 153.035156 C 155.046875 153.4375 154.921875 153.851562 154.835938 154.28125 C 154.75 154.707031 154.710938 155.140625 154.710938 155.574219 C 154.710938 156.011719 154.75 156.441406 154.835938 156.867188 C 154.921875 157.296875 155.046875 157.710938 155.210938 158.113281 C 155.378906 158.515625 155.582031 158.898438 155.824219 159.261719 C 156.066406 159.625 156.339844 159.960938 156.644531 160.269531 C 156.957031 160.566406 157.296875 160.835938 157.660156 161.070312 C 158.023438 161.304688 158.40625 161.5 158.808594 161.664062 C 159.207031 161.824219 159.621094 161.945312 160.046875 162.027344 C 160.472656 162.109375 160.898438 162.152344 161.332031 162.152344 C 161.765625 162.152344 162.191406 162.109375 162.617188 162.027344 C 163.042969 161.945312 163.453125 161.824219 163.855469 161.664062 C 164.257812 161.5 164.640625 161.304688 165.003906 161.070312 C 165.367188 160.835938 165.703125 160.566406 166.015625 160.269531 Z M 166.015625 160.269531 "/></g></g></svg>